<?xml version="1.0" encoding="utf-8"?>
<!-- Generator: Adobe Illustrator 26.4.0, SVG Export Plug-In . SVG Version: 6.00 Build 0)  -->
<svg version="1.1" id="Ebene_1" xmlns="http://www.w3.org/2000/svg" xmlns:xlink="http://www.w3.org/1999/xlink" x="0px" y="0px"
	 viewBox="0 0 250 250" style="enable-background:new 0 0 250 250;" xml:space="preserve">
<style type="text/css">
	.st0{fill:#691E0D;}
	.st1{fill:#FFFFFF;}
</style>
<path class="st0" d="M225,200H25c-13.81,0-25-11.19-25-25V75c0-13.81,11.19-25,25-25h200c13.81,0,25,11.19,25,25v100
	C250,188.81,238.81,200,225,200z"/>
<rect x="112.5" y="87.5" class="st1" width="25" height="75"/>
<rect x="87.5" y="112.49" class="st1" width="75" height="26.67"/>
<rect x="87.5" y="25" class="st0" width="12.5" height="25"/>
<rect x="150" y="25" class="st0" width="12.5" height="25"/>
<path class="st0" d="M157.5,12.5h-65c-2.76,0-5,2.24-5,5V25h75v-7.5C162.5,14.74,160.26,12.5,157.5,12.5z"/>
</svg>
