<?xml version="1.0" encoding="utf-8"?>
<!-- Generator: Adobe Illustrator 26.4.0, SVG Export Plug-In . SVG Version: 6.00 Build 0)  -->
<svg version="1.1" id="Ebene_1" xmlns="http://www.w3.org/2000/svg" xmlns:xlink="http://www.w3.org/1999/xlink" x="0px" y="0px"
	 viewBox="0 0 250 250" style="enable-background:new 0 0 250 250;" xml:space="preserve">
<style type="text/css">
	.st0{fill:#D5DDE3;}
	.st1{fill:#4D5051;}
</style>
<path class="st0" d="M187.5,250H50c-13.81,0-25-11.19-25-25V25C25,11.19,36.19,0,50,0h137.5c13.81,0,25,11.19,25,25v200
	C212.5,238.81,201.31,250,187.5,250z"/>
<polygon class="st1" points="237.5,50 250,62.5 162.5,150 150,150 150,137.5 "/>
<rect x="12.5" y="62.5" class="st1" width="25" height="12.5"/>
<rect x="12.5" y="100" class="st1" width="25" height="12.5"/>
<rect x="12.5" y="137.5" class="st1" width="25" height="12.5"/>
<rect x="12.5" y="175" class="st1" width="25" height="12.5"/>
<polygon class="st1" points="137.5,162.5 150,137.5 162.5,150 "/>
</svg>
