<?xml version="1.0" encoding="utf-8"?>
<!-- Generator: Adobe Illustrator 26.4.0, SVG Export Plug-In . SVG Version: 6.00 Build 0)  -->
<svg version="1.1" id="Ebene_1" xmlns="http://www.w3.org/2000/svg" xmlns:xlink="http://www.w3.org/1999/xlink" x="0px" y="0px"
	 viewBox="0 0 250 250" style="enable-background:new 0 0 250 250;" xml:space="preserve">
<style type="text/css">
	.st0{fill:#691E0D;}
	.st1{fill:#FFFFFF;}
</style>
<path class="st0" d="M225,250H25c-13.81,0-25-11.19-25-25V125c0-13.81,11.19-25,25-25h200c13.81,0,25,11.19,25,25v100
	C250,238.81,238.81,250,225,250z"/>
<rect x="112.5" y="137.5" class="st1" width="25" height="75"/>
<rect x="87.5" y="162.49" class="st1" width="75" height="26.67"/>
<rect x="87.5" y="75" class="st0" width="12.5" height="25"/>
<rect x="150" y="75" class="st0" width="12.5" height="25"/>
<path class="st0" d="M157.5,62.5h-65c-2.76,0-5,2.24-5,5V75h75v-7.5C162.5,64.74,160.26,62.5,157.5,62.5z"/>
<path d="M0,12.5c27.61,0,50,22.39,50,50h12.5C62.5,27.98,34.52,0,0,0V12.5z"/>
<path d="M86.98,62.49L59.46,90.01c-1.95,1.95-5.12,1.95-7.07,0l-1.77-1.77c-1.95-1.95-1.95-5.12,0-7.07l27.53-27.53
	c1.95-1.95,5.12-1.95,7.07,0l1.77,1.77C88.94,57.37,88.94,60.53,86.98,62.49z"/>
<path d="M51.98,90.01L24.46,62.49c-1.95-1.95-1.95-5.12,0-7.07l1.77-1.77c1.95-1.95,5.12-1.95,7.07,0l27.53,27.53
	c1.95,1.95,1.95,5.12,0,7.07l-1.77,1.77C57.1,91.96,53.93,91.96,51.98,90.01z"/>
<rect x="50" y="62.5" width="12.5" height="18.66"/>
</svg>
